<?xml version="1.0" encoding="UTF-8"?>
<!DOCTYPE svg PUBLIC "-//W3C//DTD SVG 1.1//EN" "http://www.w3.org/Graphics/SVG/1.1/DTD/svg11.dtd">
<!-- Creator: CorelDRAW -->
<svg xmlns="http://www.w3.org/2000/svg" xml:space="preserve" width="6.82666in" height="6.82666in" style="shape-rendering:geometricPrecision; text-rendering:geometricPrecision; image-rendering:optimizeQuality; fill-rule:evenodd; clip-rule:evenodd"
viewBox="0 0 6.82666 6.82666"
 xmlns:xlink="http://www.w3.org/1999/xlink">
 <defs>
  <style type="text/css">
   <![CDATA[
    .str0 {stroke:#353535;stroke-width:0.00694488;stroke-linecap:round;stroke-linejoin:round}
    .fil9 {fill:none}
    .fil0 {fill:#2F2F2F}
    .fil8 {fill:#7E7E7E}
    .fil6 {fill:#868686}
    .fil7 {fill:#8B8B8B}
    .fil2 {fill:#BFBFBF}
    .fil5 {fill:#DADADA}
    .fil3 {fill:white}
    .fil4 {fill:#202020;fill-rule:nonzero}
    .fil1 {fill:#2F2F2F;fill-rule:nonzero}
   ]]>
  </style>
 </defs>
 <g id="Layer_x0020_1">
  <metadata id="CorelCorpID_0Corel-Layer"/>
  <path class="fil0" d="M1.06667 0.853327l4.69333 0c0.0589094,0 0.106669,0.0477598 0.106669,0.106669l0 3.06667c0,0.0589094 -0.0477598,0.106669 -0.106669,0.106669l-4.69333 0c-0.0589094,0 -0.106669,-0.0477598 -0.106669,-0.106669l0 -3.06667c0,-0.0589094 0.0477598,-0.106669 0.106669,-0.106669zm0.106661 0.213331l0 2.85335 4.48001 0 0 -2.85335 -4.48001 0z"/>
  <path class="fil1" d="M0.906665 4.22285c-0.0589094,0 -0.106669,0.0477598 -0.106669,0.106669 0,0.0589094 0.0477598,0.106669 0.106669,0.106669l5.01333 0c0.0589094,0 0.106669,-0.0477598 0.106669,-0.106669 0,-0.0589094 -0.0477598,-0.106669 -0.106669,-0.106669l-5.01333 0z"/>
  <path class="fil1" d="M1.51301 5.82166c-0.0248504,0.0531575 -0.00190551,0.116402 0.051252,0.141252 0.0531575,0.0248504 0.116402,0.00190551 0.141252,-0.051252l0.716535 -1.5268c0.0248504,-0.0531575 0.00190551,-0.116402 -0.051252,-0.141252 -0.0531575,-0.0248504 -0.116402,-0.00190551 -0.141252,0.051252l-0.716535 1.5268z"/>
  <path class="fil1" d="M5.12115 5.91166c0.0248504,0.0531575 0.0880945,0.0761024 0.141252,0.051252 0.0531575,-0.0248504 0.0761024,-0.0880945 0.051252,-0.141252l-0.716535 -1.5268c-0.0248504,-0.0531575 -0.0880945,-0.0761024 -0.141252,-0.051252 -0.0531575,0.0248504 -0.0761024,0.0880945 -0.051252,0.141252l0.716535 1.5268z"/>
  <polygon class="fil2" points="1.17333,1.06666 1.17333,3.92 5.65333,3.92 5.65333,1.06666 "/>
  <g id="_378607688">
   <rect id="_378609872" class="fil3" x="2.4467" y="1.2884" width="1.93325" height="2.40986"/>
   <g>
    <path id="_378609464" class="fil4" d="M2.63801 1.45393l0.422898 0c0.0142323,0 0.0257795,0.0115472 0.0257795,0.0257795l0 0.422894c0,0.0142362 -0.0115472,0.0257795 -0.0257795,0.0257795l-0.422898 0c-0.0142323,0 -0.0257756,-0.0115433 -0.0257756,-0.0257795l0 -0.422894c0,-0.0142323 0.0115433,-0.0257795 0.0257756,-0.0257795zm0.397118 0.0515591l-0.371339 0 0 0.371335 0.371339 0 0 -0.371335z"/>
    <path id="_378609440" class="fil4" d="M3.17839 1.58818c-0.0142323,0 -0.0257756,0.0115472 -0.0257756,0.0257795 0,0.0142323 0.0115433,0.0257795 0.0257756,0.0257795l1.01362 0c0.0142323,0 0.0257795,-0.0115472 0.0257795,-0.0257795 0,-0.0142323 -0.0115472,-0.0257795 -0.0257795,-0.0257795l-1.01362 0z"/>
    <path id="_378609944" class="fil4" d="M3.17839 1.80298c-0.0142323,0 -0.0257756,0.0115472 -0.0257756,0.0257795 0,0.0142323 0.0115433,0.0257795 0.0257756,0.0257795l1.01362 0c0.0142323,0 0.0257795,-0.0115472 0.0257795,-0.0257795 0,-0.0142323 -0.0115472,-0.0257795 -0.0257795,-0.0257795l-1.01362 0z"/>
    <path id="_378609008" class="fil4" d="M2.63466 2.01778c-0.0142323,0 -0.0257795,0.0115472 -0.0257795,0.0257795 0,0.0142323 0.0115472,0.0257795 0.0257795,0.0257795l1.55735 0c0.0142323,0 0.0257795,-0.0115472 0.0257795,-0.0257795 0,-0.0142323 -0.0115472,-0.0257795 -0.0257795,-0.0257795l-1.55735 0z"/>
    <path id="_378608936" class="fil4" d="M2.63466 2.23593c-0.0142323,0 -0.0257795,0.0115472 -0.0257795,0.0257795 0,0.0142323 0.0115472,0.0257795 0.0257795,0.0257795l1.55735 0c0.0142323,0 0.0257795,-0.0115472 0.0257795,-0.0257795 0,-0.0142323 -0.0115472,-0.0257795 -0.0257795,-0.0257795l-1.55735 0z"/>
    <path id="_378608576" class="fil4" d="M2.63466 2.45407c-0.0142323,0 -0.0257795,0.0115472 -0.0257795,0.0257795 0,0.0142323 0.0115472,0.0257795 0.0257795,0.0257795l1.55735 0c0.0142323,0 0.0257795,-0.0115472 0.0257795,-0.0257795 0,-0.0142323 -0.0115472,-0.0257795 -0.0257795,-0.0257795l-1.55735 0z"/>
    <path id="_378608720" class="fil4" d="M2.63466 2.67222c-0.0142323,0 -0.0257795,0.0115472 -0.0257795,0.0257795 0,0.0142323 0.0115472,0.0257795 0.0257795,0.0257795l1.55735 0c0.0142323,0 0.0257795,-0.0115472 0.0257795,-0.0257795 0,-0.0142323 -0.0115472,-0.0257795 -0.0257795,-0.0257795l-1.55735 0z"/>
    <path id="_378608480" class="fil4" d="M2.63466 2.89037c-0.0142323,0 -0.0257795,0.0115472 -0.0257795,0.0257795 0,0.0142323 0.0115472,0.0257795 0.0257795,0.0257795l1.55735 0c0.0142323,0 0.0257795,-0.0115472 0.0257795,-0.0257795 0,-0.0142323 -0.0115472,-0.0257795 -0.0257795,-0.0257795l-1.55735 0z"/>
    <path id="_378608648" class="fil4" d="M2.63801 3.05827l0.422898 0c0.0142323,0 0.0257795,0.0115472 0.0257795,0.0257795l0 0.422898c0,0.0142323 -0.0115472,0.0257756 -0.0257795,0.0257756l-0.422898 0c-0.0142323,0 -0.0257756,-0.0115433 -0.0257756,-0.0257756l0 -0.422898c0,-0.0142323 0.0115433,-0.0257795 0.0257756,-0.0257795zm0.397118 0.0515591l-0.371339 0 0 0.371339 0.371339 0 0 -0.371339z"/>
    <path id="_378608600" class="fil4" d="M3.17839 3.19252c-0.0142323,0 -0.0257756,0.0115472 -0.0257756,0.0257795 0,0.0142323 0.0115433,0.0257795 0.0257756,0.0257795l1.01362 0c0.0142323,0 0.0257795,-0.0115472 0.0257795,-0.0257795 0,-0.0142323 -0.0115472,-0.0257795 -0.0257795,-0.0257795l-1.01362 0z"/>
    <path id="_378608432" class="fil4" d="M3.17839 3.40732c-0.0142323,0 -0.0257756,0.0115472 -0.0257756,0.0257795 0,0.0142323 0.0115433,0.0257795 0.0257756,0.0257795l1.01362 0c0.0142323,0 0.0257795,-0.0115472 0.0257795,-0.0257795 0,-0.0142323 -0.0115472,-0.0257795 -0.0257795,-0.0257795l-1.01362 0z"/>
   </g>
   <polygon id="_378608504" class="fil5 str0" points="2.66379,1.50549 2.66379,1.87683 3.03513,1.87683 3.03513,1.50549 "/>
   <polygon id="_378608048" class="fil6 str0" points="2.66379,3.10983 2.66379,3.48116 3.03513,3.48116 3.03513,3.10983 "/>
  </g>
  <g id="_378607064">
   <polygon id="_378607928" class="fil7" points="4.15904,1.47657 4.31054,1.32596 4.33027,1.34613 4.35044,1.36585 4.19983,1.51736 4.13965,1.53674 "/>
   <polygon id="_378607664" class="fil8" points="4.42081,1.40529 4.57411,1.25199 4.49926,1.17714 4.4244,1.10228 4.27111,1.25558 4.34596,1.33044 "/>
   <polygon id="_378608096" class="fil8" points="4.55954,1.26208 4.64359,1.24393 4.53803,1.13837 4.43247,1.03281 4.41432,1.11685 4.49291,1.18349 "/>
   <polygon id="_378608168" class="fil8" points="4.44413,1.3775 4.42597,1.46154 4.32041,1.35598 4.21485,1.25043 4.2989,1.23227 4.36553,1.31087 "/>
  </g>
 </g>
 <rect class="fil9" width="6.82666" height="6.82666"/>
</svg>
