<svg xmlns="http://www.w3.org/2000/svg" viewBox="0 0 512 512"><defs><style>.cls-1{fill:#5d5d5d;}.cls-2{fill:#fff;}.cls-3{fill:#cecece;}.cls-4{fill:#23a8fe;}.cls-5{fill:#f92814;}.cls-6{fill:#ffda45;}.cls-7{fill:#76d67b;}</style></defs><title>Development</title><g id="BULINE"><circle class="cls-1" cx="256" cy="256" r="256"/></g><g id="Icons"><path class="cls-2" d="M494.23,124.09V387.9a33.5,33.5,0,0,1-33.49,33.49H49.25A33.48,33.48,0,0,1,15.77,387.9V124.09A33.47,33.47,0,0,1,49.25,90.61H460.74A33.49,33.49,0,0,1,494.23,124.09Z"/><rect class="cls-3" x="88.16" y="169.05" width="334.18" height="74.72" rx="13.81"/><rect class="cls-3" x="88.16" y="266.41" width="334.18" height="37.36" rx="9.76"/><rect class="cls-3" x="88.16" y="327.37" width="334.18" height="37.36" rx="9.76"/><path class="cls-4" d="M494.23,124.09v19.52H15.77V124.09A33.48,33.48,0,0,1,49.25,90.61H460.73A33.5,33.5,0,0,1,494.23,124.09Z"/><circle class="cls-5" cx="59.35" cy="117.11" r="13.34"/><circle class="cls-6" cx="101.49" cy="117.11" r="13.34"/><circle class="cls-7" cx="143.63" cy="117.11" r="13.34"/><path class="cls-5" d="M353.45,241.6l-10.8-2a90.69,90.69,0,0,0-6.76-16.1l4.78-7a16.53,16.53,0,0,0-1.95-21l-12.11-12.11a16.52,16.52,0,0,0-21-2l-6.94,4.76a91.16,91.16,0,0,0-16.53-6.92l-2.07-11.05a16.53,16.53,0,0,0-16.24-13.48H246.68a16.53,16.53,0,0,0-16.24,13.48l-2.08,11.05A91.17,91.17,0,0,0,211,186.64l-7.65-5.23a16.51,16.51,0,0,0-21,2l-12.11,12.11a16.52,16.52,0,0,0-2,21l5.67,8.28a90.63,90.63,0,0,0-6.1,14.8l-10.79,2a16.52,16.52,0,0,0-13.48,16.24V275A16.52,16.52,0,0,0,157,291.21l10.59,2a91.17,91.17,0,0,0,6.6,16.1l-7.52,11a16.52,16.52,0,0,0,2,21l12.11,12.11a16.51,16.51,0,0,0,21,1.95l11-7.54a91.29,91.29,0,0,0,15.68,6.45l1.94,10.33a16.53,16.53,0,0,0,16.24,13.48h17.13a16.53,16.53,0,0,0,16.24-13.48L282,354.28a90.51,90.51,0,0,0,14.79-6l10.36,7.09a16.52,16.52,0,0,0,21-1.95l12.11-12.11a16.53,16.53,0,0,0,2-21l-6.64-9.7a91,91,0,0,0,7.28-17.39l10.59-2A16.53,16.53,0,0,0,366.93,275V257.84A16.53,16.53,0,0,0,353.45,241.6Zm-98.21,60.22a35.08,35.08,0,1,1,35.08-35.07A35.07,35.07,0,0,1,255.24,301.82Z"/><path class="cls-4" d="M362.63,308l-1.08,81.76a5.08,5.08,0,0,0,9.44,2.67l23.26-38.95a32.31,32.31,0,0,1,17.52-14.09l43-14.38a5.09,5.09,0,0,0-.59-9.8l-80.09-16.44A9.55,9.55,0,0,0,362.63,308Z"/></g></svg>