<?xml version="1.0" encoding="UTF-8"?>
<!DOCTYPE svg PUBLIC "-//W3C//DTD SVG 1.1//EN" "http://www.w3.org/Graphics/SVG/1.1/DTD/svg11.dtd">
<!-- Creator: CorelDRAW -->
<svg xmlns="http://www.w3.org/2000/svg" xml:space="preserve" width="2048px" height="2048px" style="shape-rendering:geometricPrecision; text-rendering:geometricPrecision; image-rendering:optimizeQuality; fill-rule:evenodd; clip-rule:evenodd"
viewBox="0 0 2048 2048"
 xmlns:xlink="http://www.w3.org/1999/xlink">
 <defs>
  <style type="text/css">
   <![CDATA[
    .fil3 {fill:none}
    .fil2 {fill:#26A69A}
    .fil1 {fill:#4DB6AC}
    .fil0 {fill:#546E7A;fill-rule:nonzero}
   ]]>
  </style>
 </defs>
 <g id="Layer_x0020_1">
  <metadata id="CorelCorpID_0Corel-Layer"/>
  <g id="_490151744">
   <g>
    <polygon id="_490144904" class="fil0" points="1381.87,531.602 1381.87,790.26 1315.08,790.26 1315.08,531.602 "/>
    <polygon id="_490144736" class="fil0" points="1257.74,955.242 723.479,955.242 723.479,888.458 1257.74,888.458 "/>
    <polygon id="_490144856" class="fil0" points="961.237,1438.04 961.239,1301.88 625.783,1301.88 592.521,1301.88 592.521,1268.49 592.522,1024 659.045,1024 659.044,1235.1 994.5,1235.1 1027.76,1235.1 1027.76,1268.49 1027.76,1438.04 "/>
   </g>
   <ellipse id="_490144616" class="fil1" cx="994.498" cy="1615.01" rx="176.985" ry="176.985"/>
   <ellipse id="_490145072" class="fil1" cx="1348.47" cy="921.85" rx="176.985" ry="176.985"/>
   <rect id="_490145216" class="fil1" x="448.798" y="255.999" width="1150.4" height="320.16" rx="160.08" ry="160.08"/>
   <rect id="_490152368" class="fil1" transform="matrix(0.32534 0.32534 -0.32534 0.32534 625.783 744.865)" width="544.001" height="544.001"/>
   <path id="_490152296" class="fil2" d="M1439.12 255.999l-830.245 0c-88.017,0 -160.036,71.9906 -160.08,159.999l1150.4 0c-0.0437008,-88.0087 -72.0627,-159.999 -160.08,-159.999z"/>
   <polygon id="_490152200" class="fil2" points="769.377,888.458 625.783,744.865 448.798,921.85 723.479,921.85 802.769,921.85 "/>
   <path id="_490152560" class="fil2" d="M1525.46 921.85c0,-86.3304 -61.8119,-158.224 -143.593,-173.84 -10.8142,-2.06457 -21.9768,-3.14528 -33.3922,-3.14528 -11.4154,0 -22.578,1.08071 -33.3922,3.14528 -70.9678,13.5508 -126.898,69.4796 -140.449,140.447 -2.06457,10.8142 -3.14528,21.9768 -3.14528,33.3922l86.2524 0 267.718 0z"/>
   <path id="_490151816" class="fil2" d="M1171.49 1615.01c0,-86.3304 -61.8119,-158.224 -143.593,-173.84 -10.8142,-2.06457 -21.9768,-3.14528 -33.3922,-3.14528 -11.4154,0 -22.578,1.08071 -33.3922,3.14528 -70.9678,13.5508 -126.898,69.4796 -140.449,140.447 -2.06457,10.8142 -3.14528,21.9768 -3.14528,33.3922l86.2524 0 267.718 0z"/>
  </g>
 </g>
 <rect class="fil3" width="2048" height="2048"/>
</svg>
